<svg width="118" height="120" viewBox="0 0 118 120" fill="none" xmlns="http://www.w3.org/2000/svg">
<path fill-rule="evenodd" clip-rule="evenodd" d="M29.7962 107.43V114.281C29.7962 120.27 21.4032 120.356 21.3401 113.932L21.2621 106.264C21.2529 105.321 21.2158 104.104 20.0857 104.104C19.3824 104.104 18.95 104.685 18.95 105.394V111.049C18.95 116.441 11.2195 116.769 11.1824 111.049L11.1341 103.749C11.1304 103.039 10.5608 102.09 9.85932 102.09H9.38057C8.67729 102.09 8.1039 102.669 8.1039 103.378V107.717C8.1039 112.62 0.870674 112.62 0.766759 107.717L0.00409725 71.9006C-0.0367265 70.0181 0.226772 68.4037 0.827995 66.6244L3.11227 59.8913C3.53906 58.6313 4.37224 57.6338 5.43922 57.0206V46.26C5.43922 45.7669 5.61736 45.3431 5.96808 45.0019C6.31879 44.6606 6.74558 44.4975 7.23176 44.5163C7.36722 44.5219 7.50454 44.5238 7.64185 44.5238H34.6338C35.5839 44.5238 36.3595 45.3075 36.3595 46.2694V54.3844C37.9943 57.1031 39.1893 57.6975 40.5013 58.9013L43.808 61.9387C45.3203 63.3281 48.9444 67.4419 49.1095 69.5025L49.54 74.8537C49.6105 75.7219 48.6976 76.3481 47.8328 76.3481L40.6442 76.3537V110.162V112.279C40.6442 118.125 33.1159 119.004 32.6167 112.667L32.227 107.728C32.1825 106.939 32.1083 105.857 31.0079 105.78C30.1766 105.722 29.7962 106.571 29.7962 107.43ZM88.2038 12.5701V5.72069C88.2038 -0.268058 96.5968 -0.354308 96.6599 6.06944L96.7379 13.7382C96.7471 14.6813 96.7842 15.8963 97.9143 15.8963C98.6176 15.8963 99.05 15.3169 99.05 14.6082V8.95131C99.05 3.55881 106.781 3.23256 106.818 8.95131L106.866 16.2526C106.87 16.9632 107.439 17.9119 108.141 17.9119H108.619C109.323 17.9119 109.896 17.3325 109.896 16.6238V12.2832C109.896 7.38193 117.129 7.38193 117.233 12.2832L117.996 48.1013C118.037 49.9838 117.773 51.5963 117.172 53.3775L114.888 60.1087C114.461 61.3706 113.628 62.3681 112.561 62.9812V73.74C112.561 74.2331 112.383 74.6569 112.032 74.9981C111.681 75.3394 111.254 75.5025 110.768 75.4837C110.633 75.4781 110.495 75.4762 110.358 75.4762H83.3662C82.4161 75.4762 81.6405 74.6925 81.6405 73.7306V65.6175C80.0057 62.8987 78.8107 62.3044 77.4987 61.1006L74.192 58.0613C72.6797 56.6738 69.0556 52.56 68.8905 50.4994L68.46 45.1481C68.3895 44.28 69.3024 43.6538 70.1672 43.6538L77.3558 43.6481V9.83818V7.72131C77.3558 1.87694 84.8841 0.997566 85.3833 7.33506L85.773 12.2738C85.8175 13.0632 85.8917 14.1451 86.9921 14.2219C87.8234 14.2801 88.2038 13.4307 88.2038 12.5701ZM105.56 89.8912H112.338C118.265 89.8912 118.35 98.3718 111.993 98.4375L104.403 98.5162C103.47 98.5256 102.268 98.5631 102.268 99.705C102.268 100.416 102.841 100.852 103.542 100.852H109.141C114.478 100.852 114.801 108.664 109.141 108.701L101.915 108.748C101.212 108.754 100.273 109.329 100.273 110.038V110.522C100.273 111.232 100.846 111.812 101.548 111.812H105.843C110.694 111.812 110.694 119.121 105.843 119.226L70.3954 119.996C68.5323 120.036 66.9365 119.771 65.1737 119.162L58.512 116.856C57.265 116.424 56.2778 115.582 55.6692 114.504H45.7824C45.2943 114.504 44.875 114.324 44.5373 113.97C44.1995 113.616 44.0381 113.184 44.0566 112.693C44.0604 112.558 44.0641 112.419 44.0641 112.279V85.005C44.0641 84.045 44.8397 83.2612 45.7898 83.2612H53.0601C55.7508 81.6094 56.339 80.4 57.5303 79.0762L60.5383 75.735C61.9133 74.2069 65.9827 70.545 68.022 70.3781L73.318 69.9412C74.1772 69.8719 74.7969 70.7944 74.7969 71.6681L74.8025 78.9319H108.263H110.358C116.142 78.9319 117.012 86.5387 110.742 87.0431L105.853 87.4368C105.071 87.4818 104.003 87.5568 103.927 88.6687C103.869 89.5087 104.708 89.8912 105.56 89.8912ZM12.4405 30.1088H5.6619C-0.264968 30.1088 -0.350327 21.6282 6.00705 21.5625L13.5966 21.4838C14.5299 21.4744 15.7324 21.4369 15.7324 20.295C15.7324 19.5844 15.159 19.1475 14.4576 19.1475H8.85914C3.52236 19.1475 3.19948 11.3363 8.85914 11.2988L16.0849 11.2519C16.7882 11.2463 17.7272 10.6707 17.7272 9.96193V9.47818C17.7272 8.76756 17.1538 8.18818 16.4524 8.18818H12.1566C7.30598 8.18818 7.30598 0.879441 12.1566 0.774441L47.6046 0.00381696C49.4677 -0.035558 51.0635 0.228817 52.8263 0.838191L59.488 3.14444C60.735 3.57569 61.7222 4.41756 62.3308 5.49569H72.2176C72.7057 5.49569 73.125 5.67569 73.4627 6.03006C73.8005 6.38444 73.9619 6.81568 73.9434 7.30693C73.9396 7.44381 73.9359 7.58256 73.9359 7.72131V34.995C73.9359 35.955 73.1603 36.7388 72.2102 36.7388H64.9399C62.2492 38.3906 61.661 39.6 60.4697 40.9238L57.4617 44.265C56.0867 45.7931 52.0173 49.455 49.978 49.6219L44.682 50.0588C43.8228 50.1281 43.2031 49.2056 43.2031 48.3319L43.1975 41.0681H9.73685H7.64185C1.85787 41.0681 0.987579 33.4613 7.25774 32.9569L12.1473 32.5632C12.9285 32.5182 13.9974 32.4432 14.0735 31.3313C14.131 30.4913 13.2922 30.1088 12.4405 30.1088Z" fill="url(#paint0_linear)"/>
<defs>
<linearGradient id="paint0_linear" x1="118" y1="0" x2="60.538" y2="142.429" gradientUnits="userSpaceOnUse">
<stop stop-color="#FF46B5"/>
<stop offset="1" stop-color="#3EE9D4"/>
</linearGradient>
</defs>
</svg>
