<svg width="122" height="124" viewBox="0 0 122 124" fill="none" xmlns="http://www.w3.org/2000/svg">
<path fill-rule="evenodd" clip-rule="evenodd" d="M50 6C48.8954 6 48 6.89543 48 8V24H44V8C44 4.68629 46.6863 2 50 2H116C119.314 2 122 4.68629 122 8V79C122 82.3137 119.314 85 116 85H100V81H116C117.105 81 118 80.1046 118 79V8C118 6.89543 117.105 6 116 6H50Z" fill="url(#paint0_linear)"/>
<mask id="path-2-inside-1" fill="white">
<path fill-rule="evenodd" clip-rule="evenodd" d="M2 28C0.895431 28 0 28.8954 0 30V122C0 123.105 0.895429 124 2 124H94C95.1046 124 96 123.105 96 122V30C96 28.8954 95.1046 28 94 28H2ZM32.3608 52.7506C32.7403 52.2762 33.3149 52 33.9225 52H37.2251L33.5585 63H24.1613L32.3608 52.7506ZM37.7749 63L41.4415 52H53.7263L58.8596 63H37.7749ZM63.2737 63L58.1404 52H63.8593C64.528 52 65.1524 52.3342 65.5234 52.8906L72.263 63H63.2737ZM63.3946 67H72.042L54.7471 90.4716L63.3946 67ZM59.1317 67L48.0698 97.0253L37.798 67H59.1317ZM41.9012 91.3515L33.5704 67H23.958L41.9012 91.3515ZM33.9225 48C32.0998 48 30.3759 48.8285 29.2373 50.2518L18.4383 63.7506C17.8724 64.4579 17.8526 65.4572 18.3899 66.1864L46.3899 104.186C46.7669 104.698 47.3645 105 48 105C48.6355 105 49.2331 104.698 49.6101 104.186L77.6101 66.1864C78.1094 65.5087 78.131 64.591 77.6641 63.8906L68.8516 50.6718C67.7388 49.0026 65.8654 48 63.8593 48H33.9225Z"/>
</mask>
<path fill-rule="evenodd" clip-rule="evenodd" d="M2 28C0.895431 28 0 28.8954 0 30V122C0 123.105 0.895429 124 2 124H94C95.1046 124 96 123.105 96 122V30C96 28.8954 95.1046 28 94 28H2ZM32.3608 52.7506C32.7403 52.2762 33.3149 52 33.9225 52H37.2251L33.5585 63H24.1613L32.3608 52.7506ZM37.7749 63L41.4415 52H53.7263L58.8596 63H37.7749ZM63.2737 63L58.1404 52H63.8593C64.528 52 65.1524 52.3342 65.5234 52.8906L72.263 63H63.2737ZM63.3946 67H72.042L54.7471 90.4716L63.3946 67ZM59.1317 67L48.0698 97.0253L37.798 67H59.1317ZM41.9012 91.3515L33.5704 67H23.958L41.9012 91.3515ZM33.9225 48C32.0998 48 30.3759 48.8285 29.2373 50.2518L18.4383 63.7506C17.8724 64.4579 17.8526 65.4572 18.3899 66.1864L46.3899 104.186C46.7669 104.698 47.3645 105 48 105C48.6355 105 49.2331 104.698 49.6101 104.186L77.6101 66.1864C78.1094 65.5087 78.131 64.591 77.6641 63.8906L68.8516 50.6718C67.7388 49.0026 65.8654 48 63.8593 48H33.9225Z" fill="url(#paint1_linear)"/>
<path d="M32.3608 52.7506L30.799 51.5012L30.799 51.5012L32.3608 52.7506ZM37.2251 52L39.1225 52.6325L40 50H37.2251V52ZM33.5585 63V65H35L35.4558 63.6325L33.5585 63ZM24.1613 63L22.5995 61.7506L20 65H24.1613V63ZM41.4415 52V50H40L39.5442 51.3675L41.4415 52ZM37.7749 63L35.8775 62.3675L35 65H37.7749V63ZM53.7263 52L55.5386 51.1542L55 50H53.7263V52ZM58.8596 63V65H62L60.672 62.1542L58.8596 63ZM58.1404 52V50H55L56.328 52.8458L58.1404 52ZM63.2737 63L61.4614 63.8458L62 65H63.2737V63ZM65.5234 52.8906L63.8593 54L63.8593 54L65.5234 52.8906ZM72.263 63V65H76L73.9271 61.8906L72.263 63ZM72.042 67L73.6521 68.1864L76 65H72.042V67ZM63.3946 67V65H62L61.5179 66.3086L63.3946 67ZM54.7471 90.4716L52.8704 89.7802L56.3572 91.658L54.7471 90.4716ZM48.0698 97.0253L46.1775 97.6726L48 103L49.9465 97.7167L48.0698 97.0253ZM59.1317 67L61.0084 67.6914L62 65H59.1317V67ZM37.798 67V65H35L35.9057 67.6474L37.798 67ZM33.5704 67L35.4627 66.3526L35 65H33.5704V67ZM41.9012 91.3515L40.2911 92.5379L43.7935 90.7041L41.9012 91.3515ZM23.958 67V65H20L22.3479 68.1864L23.958 67ZM29.2373 50.2518L27.6755 49.0024V49.0024L29.2373 50.2518ZM18.4383 63.7506L16.8765 62.5012H16.8765L18.4383 63.7506ZM18.3899 66.1864L16.7798 67.3728L18.3899 66.1864ZM46.3899 104.186L44.7798 105.373H44.7798L46.3899 104.186ZM49.6101 104.186L48 103L48 103L49.6101 104.186ZM77.6101 66.1864L76 65L76 65L77.6101 66.1864ZM77.6641 63.8906L79.3282 62.7812L77.6641 63.8906ZM68.8516 50.6718L67.1875 51.7812V51.7812L68.8516 50.6718ZM2 30V30V26C-0.209136 26 -2 27.7909 -2 30H2ZM2 122V30H-2V122H2ZM2 122H2H-2C-2 124.209 -0.209144 126 2 126V122ZM94 122H2V126H94V122ZM94 122V126C96.2091 126 98 124.209 98 122H94ZM94 30V122H98V30H94ZM94 30H98C98 27.7909 96.2091 26 94 26V30ZM2 30H94V26H2V30ZM33.9225 50C32.7074 50 31.5581 50.5524 30.799 51.5012L33.9225 54L33.9225 54V50ZM37.2251 50H33.9225V54H37.2251V50ZM35.4558 63.6325L39.1225 52.6325L35.3278 51.3675L31.6611 62.3675L35.4558 63.6325ZM24.1613 65H33.5585V61H24.1613V65ZM30.799 51.5012L22.5995 61.7506L25.723 64.2494L33.9225 54L30.799 51.5012ZM39.5442 51.3675L35.8775 62.3675L39.6722 63.6325L43.3389 52.6325L39.5442 51.3675ZM53.7263 50H41.4415V54H53.7263V50ZM60.672 62.1542L55.5386 51.1542L51.9139 52.8458L57.0472 63.8458L60.672 62.1542ZM37.7749 65H58.8596V61H37.7749V65ZM56.328 52.8458L61.4614 63.8458L65.0861 62.1542L59.9528 51.1542L56.328 52.8458ZM63.8593 50H58.1404V54H63.8593V50ZM67.1875 51.7812C66.4456 50.6684 65.1967 50 63.8593 50V54L63.8593 54L67.1875 51.7812ZM73.9271 61.8906L67.1875 51.7812L63.8593 54L70.5989 64.1094L73.9271 61.8906ZM63.2737 65H72.263V61H63.2737V65ZM72.042 65H63.3946V69H72.042V65ZM56.3572 91.658L73.6521 68.1864L70.4319 65.8136L53.137 89.2852L56.3572 91.658ZM61.5179 66.3086L52.8704 89.7802L56.6238 91.163L65.2713 67.6914L61.5179 66.3086ZM49.9465 97.7167L61.0084 67.6914L57.2551 66.3086L46.1931 96.3338L49.9465 97.7167ZM35.9057 67.6474L46.1775 97.6726L49.9621 96.3779L39.6903 66.3526L35.9057 67.6474ZM59.1317 65H37.798V69H59.1317V65ZM31.6781 67.6474L40.0089 91.9989L43.7935 90.7041L35.4627 66.3526L31.6781 67.6474ZM23.958 69H33.5704V65H23.958V69ZM43.5113 90.1651L25.5681 65.8136L22.3479 68.1864L40.2911 92.5379L43.5113 90.1651ZM30.799 51.5012C31.5581 50.5524 32.7074 50 33.9225 50V46C31.4922 46 29.1937 47.1047 27.6755 49.0024L30.799 51.5012ZM20 65L30.799 51.5012L27.6755 49.0024L16.8765 62.5012L20 65ZM20 65H20L16.8765 62.5012C15.7448 63.9158 15.7052 65.9144 16.7798 67.3728L20 65ZM48 103L20 65L16.7798 67.3728L44.7798 105.373L48 103ZM48 103H48L44.7798 105.373C45.5337 106.396 46.729 107 48 107V103ZM48 103L48 103V107C49.271 107 50.4663 106.396 51.2202 105.373L48 103ZM76 65L48 103L51.2202 105.373L79.2202 67.3728L76 65ZM76 65V65L79.2202 67.3728C80.2189 66.0175 80.262 64.182 79.3282 62.7812L76 65ZM67.1875 51.7812L76 65L79.3282 62.7812L70.5157 49.5624L67.1875 51.7812ZM63.8593 50C65.1967 50 66.4456 50.6684 67.1875 51.7812L70.5157 49.5624C69.0319 47.3368 66.5341 46 63.8593 46V50ZM33.9225 50H63.8593V46H33.9225V50Z" fill="url(#paint2_linear)" mask="url(#path-2-inside-1)"/>
<path d="M15.5169 1.8105C15.6489 1.31571 16.3511 1.31571 16.4831 1.8105L18.3596 8.84318C18.4009 8.99794 18.5139 9.12355 18.6634 9.18101L24.7853 11.5333C25.2129 11.6975 25.2129 12.3025 24.7853 12.4667L18.6634 14.819C18.5139 14.8764 18.4009 15.0021 18.3596 15.1568L16.4831 22.1895C16.3511 22.6843 15.6489 22.6843 15.5169 22.1895L13.6404 15.1568C13.5991 15.0021 13.4861 14.8764 13.3366 14.819L7.2147 12.4667C6.78715 12.3025 6.78715 11.6975 7.2147 11.5333L13.3366 9.18101C13.4861 9.12355 13.5991 8.99794 13.6404 8.84318L15.5169 1.8105Z" fill="url(#paint3_linear)"/>
<path d="M109.061 14.269C109.355 13.8501 110.014 14.0922 109.967 14.6022L109.303 21.8506C109.289 22.0101 109.352 22.1669 109.472 22.2724L114.407 26.5917C114.752 26.8934 114.543 27.4611 114.085 27.4679L107.528 27.5645C107.367 27.5669 107.218 27.6458 107.126 27.7768L102.939 33.7309C102.645 34.1498 101.986 33.9076 102.032 33.3976L102.696 26.1493C102.711 25.9898 102.648 25.8329 102.528 25.7274L97.5926 21.4081C97.2479 21.1065 97.4566 20.5387 97.9145 20.5319L104.472 20.4353C104.632 20.433 104.782 20.354 104.874 20.223L109.061 14.269Z" fill="url(#paint4_linear)"/>
<defs>
<linearGradient id="paint0_linear" x1="122" y1="2" x2="80.9577" y2="99.2223" gradientUnits="userSpaceOnUse">
<stop stop-color="#FF46B5"/>
<stop offset="1" stop-color="#3EE9D4"/>
</linearGradient>
<linearGradient id="paint1_linear" x1="96" y1="28" x2="50.5864" y2="142.473" gradientUnits="userSpaceOnUse">
<stop stop-color="#FF46B5"/>
<stop offset="1" stop-color="#3EE9D4"/>
</linearGradient>
<linearGradient id="paint2_linear" x1="96" y1="28" x2="50.5864" y2="142.473" gradientUnits="userSpaceOnUse">
<stop stop-color="#FF46B5"/>
<stop offset="1" stop-color="#3EE9D4"/>
</linearGradient>
<linearGradient id="paint3_linear" x1="26" y1="0" x2="13.1451" y2="27.0026" gradientUnits="userSpaceOnUse">
<stop stop-color="#FF46B5"/>
<stop offset="1" stop-color="#3EE9D4"/>
</linearGradient>
<linearGradient id="paint4_linear" x1="119.525" y1="16.185" x2="98.146" y2="37.0975" gradientUnits="userSpaceOnUse">
<stop stop-color="#FF46B5"/>
<stop offset="1" stop-color="#3EE9D4"/>
</linearGradient>
</defs>
</svg>
