<svg width="96" height="123" viewBox="0 0 96 123" fill="none" xmlns="http://www.w3.org/2000/svg">
<path fill-rule="evenodd" clip-rule="evenodd" d="M80.6572 83.1785C90.0949 74.4132 96 61.8962 96 48C96 21.4903 74.5097 0 48 0C21.4903 0 0 21.4903 0 48C0 61.8962 5.90509 74.4132 15.3428 83.1785L46.4383 122.048C47.2389 123.049 48.7611 123.049 49.5617 122.048L80.6572 83.1785ZM24.27 32L44.2025 33.6423L41.9032 61.5477C41.506 66.3693 37.7507 70.1091 33.1256 70.6577L32.2828 80.8861C35.7034 81.3907 38.18 82.3804 38.1034 83.3092C38.0127 84.41 34.3696 85.0083 29.9662 84.6455C25.5629 84.2827 22.0668 83.0962 22.1575 81.9953C22.234 81.0666 24.8393 80.4955 28.2963 80.5576L29.1391 70.3292C24.6661 69.031 21.5735 64.727 21.9708 59.9054L24.27 32ZM71.8311 32.3577L51.8987 34L54.1979 61.9054C54.5952 66.727 58.3504 70.4668 62.9756 71.0154L63.8183 81.2438C60.3978 81.7484 57.9212 82.7381 57.9977 83.6669C58.0884 84.7677 61.7316 85.366 66.1349 85.0032C70.5383 84.6404 74.0344 83.4539 73.9437 82.3531C73.8671 81.4243 71.2619 80.8532 67.8048 80.9153L66.9621 70.6869C71.4351 69.3887 74.5276 65.0847 74.1303 60.2631L71.8311 32.3577ZM50.0001 17C50.0001 15.8954 49.1047 15 48.0001 15C46.8955 15 46.0001 15.8954 46.0001 17V27C46.0001 28.1046 46.8955 29 48.0001 29C49.1047 29 50.0001 28.1046 50.0001 27V17ZM61.6961 21.06C62.2815 20.1233 61.9968 18.8894 61.0601 18.304C60.1234 17.7186 58.8895 18.0033 58.3041 18.94L53.3041 26.94C52.7187 27.8767 53.0034 29.1106 53.9401 29.696C54.8768 30.2814 56.1107 29.9967 56.6961 29.06L61.6961 21.06ZM36.6001 18.8C35.9374 17.9163 34.6838 17.7373 33.8001 18.4C32.9165 19.0627 32.7374 20.3163 33.4001 21.2L39.4001 29.2C40.0629 30.0837 41.3165 30.2627 42.2001 29.6C43.0838 28.9373 43.2629 27.6837 42.6001 26.8L36.6001 18.8Z" fill="url(#paint0_linear)"/>
<defs>
<linearGradient id="paint0_linear" x1="96" y1="0" x2="27.61" y2="134.769" gradientUnits="userSpaceOnUse">
<stop stop-color="#FF46B5"/>
<stop offset="1" stop-color="#3EE9D4"/>
</linearGradient>
</defs>
</svg>
