<svg width="128" height="130" viewBox="0 0 128 130" fill="none" xmlns="http://www.w3.org/2000/svg">
<path d="M60.5488 0H65.4516V13.5156H60.5488V0Z" fill="url(#paint0_linear)"/>
<path d="M91.7578 10.8881L82.1973 20.4471L85.6719 23.912L95.2309 14.3595L91.7578 10.8881Z" fill="url(#paint1_linear)"/>
<path d="M34.2468 10.8881L30.7705 14.3595L40.3311 23.912L43.8057 20.4471L34.2468 10.8881Z" fill="url(#paint2_linear)"/>
<path d="M19.876 40.675H33.3916V45.5697H19.876V40.675Z" fill="url(#paint3_linear)"/>
<path d="M92.6094 40.675H106.115V45.5697H92.6094V40.675Z" fill="url(#paint4_linear)"/>
<path fill-rule="evenodd" clip-rule="evenodd" d="M24.8628 63.8762C16.1381 63.7674 7.8044 68.3651 3.29108 76.2346C-2.26901 85.9315 -0.663953 98.1699 7.19743 106.082C13.4343 112.361 13.4343 119.123 13.4343 129.114H38.4823V119.071L49.1302 113.552V102.404L53.9146 97.9313L49.1302 88.6012C49.1302 77.4096 41.6583 67.6121 30.9228 64.7217C28.9023 64.1829 26.8736 63.9037 24.8628 63.8762Z" fill="url(#paint5_linear)"/>
<path fill-rule="evenodd" clip-rule="evenodd" d="M103.1 63.8762C111.831 63.7674 120.158 68.3651 124.671 76.2346C130.233 85.9315 128.636 98.1699 120.773 106.082C114.535 112.361 114.535 119.123 114.535 129.114H89.4915V119.071L78.8403 113.552V102.404L74.0479 97.9313L78.8403 88.6012C78.8403 77.4096 86.3041 67.6121 97.0478 64.7217C99.0602 64.1829 101.089 63.9037 103.1 63.8762Z" fill="url(#paint6_linear)"/>
<path fill-rule="evenodd" clip-rule="evenodd" d="M63.0008 24.3534C71.0148 24.3534 78.2237 29.1962 81.2927 36.6599C84.3616 44.114 82.6689 52.704 77.0049 58.4167L72.2904 63.1588H64.8428V50.1999C65.6283 50.023 66.3976 49.7357 67.1165 49.33C69.6791 47.884 71.2761 45.1867 71.2761 42.2622H67.6002C67.6002 43.8429 66.7449 45.323 65.3167 46.1345C63.8805 46.9378 62.1115 46.9378 60.6833 46.1345C59.2568 45.323 58.4031 43.8429 58.4031 42.2622H54.7159C54.7159 45.1867 56.3242 47.884 58.8754 49.33C59.6025 49.7357 60.3733 50.0214 61.1588 50.1999V63.1572H53.7129L48.9951 58.4151C43.323 52.7008 41.6336 44.1123 44.7074 36.6583C47.7747 29.1962 54.9853 24.3534 63.0008 24.3534Z" fill="url(#paint7_linear)"/>
<path fill-rule="evenodd" clip-rule="evenodd" d="M54.7096 66.8348H71.2844V72.2034L67.2677 75.6683L67.1168 76.1844C66.6104 77.916 64.9177 79.0423 63.1439 79.151C61.3603 79.2533 59.6936 78.5506 58.8497 76.1L58.6955 75.6261L54.708 72.2034V66.8348H54.7096Z" fill="url(#paint8_linear)"/>
<defs>
<linearGradient id="paint0_linear" x1="65.4516" y1="0" x2="56.1624" y2="8.49388" gradientUnits="userSpaceOnUse">
<stop stop-color="#FF46B5"/>
<stop offset="1" stop-color="#3EE9D4"/>
</linearGradient>
<linearGradient id="paint1_linear" x1="95.2309" y1="10.8881" x2="89.0732" y2="26.4213" gradientUnits="userSpaceOnUse">
<stop stop-color="#FF46B5"/>
<stop offset="1" stop-color="#3EE9D4"/>
</linearGradient>
<linearGradient id="paint2_linear" x1="43.8057" y1="10.8881" x2="37.6486" y2="26.4218" gradientUnits="userSpaceOnUse">
<stop stop-color="#FF46B5"/>
<stop offset="1" stop-color="#3EE9D4"/>
</linearGradient>
<linearGradient id="paint3_linear" x1="33.3916" y1="40.675" x2="32.4407" y2="47.2936" gradientUnits="userSpaceOnUse">
<stop stop-color="#FF46B5"/>
<stop offset="1" stop-color="#3EE9D4"/>
</linearGradient>
<linearGradient id="paint4_linear" x1="106.115" y1="40.675" x2="105.164" y2="47.2934" gradientUnits="userSpaceOnUse">
<stop stop-color="#FF46B5"/>
<stop offset="1" stop-color="#3EE9D4"/>
</linearGradient>
<linearGradient id="paint5_linear" x1="53.9146" y1="63.8743" x2="18.7871" y2="137.049" gradientUnits="userSpaceOnUse">
<stop stop-color="#FF46B5"/>
<stop offset="1" stop-color="#3EE9D4"/>
</linearGradient>
<linearGradient id="paint6_linear" x1="127.966" y1="63.8743" x2="92.8406" y2="137.051" gradientUnits="userSpaceOnUse">
<stop stop-color="#FF46B5"/>
<stop offset="1" stop-color="#3EE9D4"/>
</linearGradient>
<linearGradient id="paint7_linear" x1="82.8037" y1="24.3534" x2="64.7209" y2="70.8809" gradientUnits="userSpaceOnUse">
<stop stop-color="#FF46B5"/>
<stop offset="1" stop-color="#3EE9D4"/>
</linearGradient>
<linearGradient id="paint8_linear" x1="71.2844" y1="66.8348" x2="66.6681" y2="82.4838" gradientUnits="userSpaceOnUse">
<stop stop-color="#FF46B5"/>
<stop offset="1" stop-color="#3EE9D4"/>
</linearGradient>
</defs>
</svg>
