<svg width="21" height="21" viewBox="0 0 21 21" fill="none" xmlns="http://www.w3.org/2000/svg">
<path fill-rule="evenodd" clip-rule="evenodd" d="M20.2991 8.48528C20.6896 8.09476 20.6896 7.46159 20.2991 7.07107L19.2407 6.01267C18.9089 5.68092 18.3899 5.6281 17.9496 5.79028C17.2741 6.03913 16.2622 6.21615 15.5261 5.48008C14.7901 4.74401 14.9671 3.73207 15.2159 3.05656C15.3781 2.61632 15.3253 2.09726 14.9935 1.76551L13.9351 0.707107C13.5446 0.316583 12.9114 0.316582 12.5209 0.707106L1.20721 12.0208C0.816688 12.4113 0.816687 13.0445 1.20721 13.435L2.12645 14.3543C2.51698 14.7448 3.15867 14.734 3.66774 14.5198C4.27334 14.2651 5.13202 14.1779 5.98018 15.026C6.82835 15.8742 6.74113 16.7329 6.48637 17.3385C6.27222 17.8475 6.26141 18.4892 6.65193 18.8797L7.57117 19.799C7.9617 20.1895 8.59486 20.1895 8.98539 19.799L20.2991 8.48528ZM12.1964 14.8203L19.2384 7.77817L18.4145 6.95427C18.404 6.95618 18.3928 6.95915 18.3817 6.96322C17.6221 7.24307 15.9357 7.65743 14.6422 6.36396C13.3488 5.07049 13.7631 3.38412 14.043 2.62446C14.0471 2.61341 14.05 2.60222 14.0519 2.59167L13.228 1.76777L6.18595 8.80984L12.1964 14.8203ZM5.30207 9.69373L11.3125 15.7041L8.27828 18.7383L7.58865 18.0487C7.58846 18.0273 7.59038 17.9982 7.59687 17.9624C7.60518 17.9167 7.61944 17.8686 7.63858 17.8232C7.82572 17.3783 7.9753 16.7846 7.8861 16.1095C7.79439 15.4153 7.4638 14.7419 6.86407 14.1421C6.26433 13.5424 5.59093 13.2118 4.89672 13.1201C4.22161 13.0309 3.62792 13.1805 3.18305 13.3676C3.13756 13.3868 3.08954 13.401 3.04378 13.4093C3.00801 13.4158 2.97889 13.4177 2.9575 13.4176L2.26787 12.7279L5.30207 9.69373ZM14.1097 2.64939C14.1098 2.64959 14.1095 2.6492 14.1097 2.64939V2.64939ZM18.3568 6.89655C18.357 6.89674 18.3566 6.89636 18.3568 6.89655V6.89655Z" fill="#201627"/>
</svg>
