<svg width="160" height="160" viewBox="0 0 160 160" fill="none" xmlns="http://www.w3.org/2000/svg">
<path fill-rule="evenodd" clip-rule="evenodd" d="M117.666 23.9396C117.666 33.3607 118.44 39.2189 127.208 41.9806C128.359 42.346 129.095 42.384 129.697 41.1143C133.334 33.3029 129.357 24.2037 119.475 22.1237C117.988 21.8018 117.666 22.0098 117.666 23.9396ZM138.74 33.4457C143.646 38.0613 145.963 43.3353 145.699 48.1408C145.428 52.9156 142.581 57.126 138.157 59.0576C133.73 60.9893 129.81 60.358 126.946 57.9472C124.054 55.5055 122.187 51.371 122.207 46.135C122.207 45.0788 123.006 44.9359 123.6 45.162C127.539 46.6432 130.798 47.9129 133.522 50.4576C132.438 44.9338 134.784 39.3229 136.619 34.9353L136.621 34.9307C136.782 34.5447 136.939 34.1682 137.09 33.802C137.412 33.0008 138.231 32.9664 138.74 33.4457ZM149.3 84.4526C150.818 91.0197 149.799 96.6897 146.906 100.542C144.034 104.356 139.333 106.27 134.576 105.413C129.818 104.554 126.908 101.852 125.871 98.2524C124.826 94.6261 125.569 90.1443 128.501 85.809C129.094 84.9319 129.836 85.2628 130.207 85.7801C132.645 89.1894 134.65 92.0615 135.509 95.6896C137.669 90.5045 142.727 87.1487 146.69 84.5193C147.045 84.2835 147.392 84.0535 147.727 83.8286C148.452 83.3421 149.139 83.7762 149.3 84.4526ZM129.773 124.119C134.039 121.889 137.383 117.196 138.825 110.612C138.973 109.925 138.532 109.247 137.676 109.377C137.268 109.438 136.847 109.499 136.415 109.561C131.711 110.236 125.718 111.097 121.551 114.85C122.332 111.215 121.759 107.757 121.013 103.62C120.9 103.002 120.373 102.389 119.46 102.924C114.955 105.59 112.354 109.321 111.752 113.041C111.138 116.744 112.611 120.428 116.539 123.233C120.467 126.049 125.544 126.342 129.773 124.119ZM79.9977 138.57C83.4158 138.57 86.1868 135.799 86.1868 132.381C86.1868 128.963 83.4158 126.192 79.9977 126.192C76.5795 126.192 73.8085 128.963 73.8085 132.381C73.8085 135.799 76.5795 138.57 79.9977 138.57ZM147.904 57.2111C151.683 62.7979 152.786 68.4499 151.466 73.0836C150.165 77.6829 146.463 81.1573 141.715 82.0706C136.968 82.984 133.285 81.5063 131.023 78.5293C128.744 75.5144 127.82 71.0688 128.99 65.9739C129.232 64.9357 130.033 64.9755 130.572 65.3246C134.077 67.6324 136.978 69.5911 139.087 72.6621C139.235 67.0398 142.758 62.0795 145.514 58.1974L145.516 58.196L145.52 58.1892C145.76 57.8519 145.994 57.5228 146.219 57.202C146.718 56.4876 147.517 56.6377 147.904 57.2111ZM105.12 138.572C109.941 138.59 115.087 136.018 119.449 130.875C119.9 130.346 119.835 129.529 119.015 129.243C118.627 129.107 118.228 128.964 117.819 128.817L117.814 128.816L117.805 128.812L117.804 128.812C113.33 127.21 107.63 125.168 102.199 126.53C104.593 123.678 105.702 120.361 106.975 116.359C107.174 115.756 106.995 114.966 105.93 115.011C100.712 115.257 96.6697 117.337 94.3818 120.343C92.1228 123.329 91.6887 127.266 93.8464 131.591C96.0023 135.915 100.345 138.552 105.12 138.572ZM21.2536 33.4457C16.3468 38.0613 14.039 43.3353 14.3013 48.1408C14.5653 52.9156 17.4103 57.126 21.8469 59.0576C26.2744 60.9893 30.1937 60.358 33.0549 57.9472C35.9397 55.5055 37.8134 51.371 37.7845 46.135C37.7845 45.0788 36.9832 44.9359 36.39 45.162C32.4617 46.6432 29.2043 47.9129 26.4733 50.4576C27.5594 44.9544 25.2279 39.3647 23.4008 34.9844L23.4008 34.9844C23.232 34.5796 23.0675 34.1851 22.9103 33.802C22.583 33.0008 21.7619 32.9664 21.2536 33.4457ZM13.0873 100.542C10.1953 96.6897 9.18786 91.0197 10.6944 84.4526C10.8518 83.7762 11.5517 83.3421 12.2661 83.8286C12.6033 84.0549 12.9524 84.2864 13.3104 84.5238L13.3105 84.5239C17.2749 87.1525 22.3346 90.5074 24.4961 95.6896C25.3407 92.0615 27.3464 89.1894 29.7881 85.7801C30.1643 85.2628 30.9004 84.9319 31.4936 85.809C34.4236 90.1443 35.1669 94.6261 34.1216 98.2524C33.0852 101.852 30.1842 104.554 25.4257 105.413C20.6708 106.27 15.9612 104.356 13.0873 100.542ZM21.1686 110.612C22.6192 117.196 25.9633 121.889 30.2226 124.119C34.462 126.342 39.5298 126.049 43.4563 123.233C47.3937 120.428 48.8533 116.744 48.2492 113.041C47.6379 109.321 45.0479 105.59 40.5444 102.924C39.6311 102.389 39.103 103.002 38.989 103.62C38.2457 107.757 37.6633 111.215 38.4428 114.85C34.2759 111.097 28.2861 110.236 23.5869 109.561C23.1543 109.499 22.7326 109.438 22.3244 109.377C21.4707 109.247 21.0167 109.925 21.1686 110.612ZM42.3364 23.9396C42.3364 33.3607 41.5533 39.2189 32.7833 41.9806C31.6348 42.346 30.8987 42.384 30.3073 41.1143C26.6611 33.3029 30.6382 24.2037 40.5278 22.1237C42.0055 21.8018 42.3364 22.0098 42.3364 23.9396ZM12.0892 57.2111C8.3128 62.7979 7.22039 68.4499 8.52983 73.0836C9.83928 77.6829 13.5415 81.1573 18.2874 82.0706C23.026 82.984 26.7119 81.5063 28.98 78.5293C31.2588 75.5144 32.1722 71.0688 31.0056 65.9739C30.7687 64.9357 29.9584 64.9755 29.4339 65.3246C25.9216 67.6324 23.0169 69.5911 20.9171 72.6621C20.763 67.0598 17.2614 62.1147 14.5169 58.2387C14.2658 57.8841 14.021 57.5384 13.7857 57.202C13.2829 56.4876 12.4835 56.6377 12.0892 57.2111ZM54.8722 138.572C50.0595 138.59 44.9085 136.018 40.5461 130.875C40.0921 130.346 40.1699 129.529 40.9892 129.243C41.384 129.104 41.7907 128.959 42.2079 128.809C46.6778 127.207 52.3648 125.169 57.8022 126.53C55.3985 123.678 54.2971 120.361 53.0166 116.359C52.8285 115.756 52.9967 114.966 54.0601 115.011C59.2889 115.257 63.3203 117.337 65.61 120.343C67.8726 123.329 68.3157 127.266 66.158 131.591C64.0021 135.915 59.6488 138.552 54.8722 138.572Z" fill="url(#paint0_linear)"/>
<path fill-rule="evenodd" clip-rule="evenodd" d="M79.6662 45.3385L45.1274 61.2077C44.3411 61.569 44.3537 62.6908 45.148 63.0342L79.6871 77.97C79.9436 78.081 80.2348 78.0795 80.4901 77.966L114.095 63.0303C114.877 62.6828 114.89 61.5776 114.116 61.2123L80.5107 45.343C80.2437 45.2169 79.9345 45.2152 79.6662 45.3385ZM106.617 92.2988C103.721 93.2391 88.2268 98.144 80.0895 98.144C71.9521 98.144 56.4575 93.2391 53.5618 92.2988C53.2625 92.2016 53.0321 91.9714 52.9408 91.6702C52.4774 90.1405 51.0895 85.1423 51.0895 80.144C51.0895 75.6823 52.1954 71.4894 52.7625 69.6327C52.9301 69.0837 53.5336 68.8194 54.0615 69.0445L79.6972 79.9768C79.9478 80.0836 80.2311 80.0836 80.4817 79.9768L106.117 69.0445C106.645 68.8194 107.249 69.0837 107.416 69.6327C107.984 71.4894 109.089 75.6823 109.089 80.144C109.089 85.1423 107.702 90.1405 107.238 91.6702C107.147 91.9714 106.916 92.2016 106.617 92.2988Z" fill="url(#paint1_linear)"/>
<defs>
<linearGradient id="paint0_linear" x1="152" y1="22" x2="105.163" y2="167.839" gradientUnits="userSpaceOnUse">
<stop stop-color="#FF46B5"/>
<stop offset="1" stop-color="#3EE9D4"/>
</linearGradient>
<linearGradient id="paint1_linear" x1="114.689" y1="45.2472" x2="94.6431" y2="112.253" gradientUnits="userSpaceOnUse">
<stop stop-color="#FF46B5"/>
<stop offset="1" stop-color="#3EE9D4"/>
</linearGradient>
</defs>
</svg>
