<svg width="120" height="128" viewBox="0 0 120 128" fill="none" xmlns="http://www.w3.org/2000/svg">
<path d="M92 61L108 128H12L28 61H92Z" fill="url(#paint0_linear)"/>
<path fill-rule="evenodd" clip-rule="evenodd" d="M18.7077 35.7994C15.6041 34.5121 13.1198 33.4816 11.3672 32.8974L12.6321 29.1027C14.5295 29.7351 17.1526 30.8235 20.1888 32.0832C20.4915 32.2088 20.7984 32.3362 21.1091 32.4649C24.5751 33.9013 28.6014 35.5528 32.9303 37.1194C41.6281 40.2672 51.3595 43 59.9996 43C68.0521 43 77.0426 40.5931 85.377 37.6165C91.0105 35.6046 96.1796 33.3986 100.53 31.5421C102.646 30.6388 104.569 29.8183 106.257 29.1431L107.742 32.857C106.197 33.4752 104.355 34.2608 102.289 35.1418C97.8829 37.0213 92.4587 39.3348 86.7223 41.3835C78.2567 44.407 68.7472 47 59.9996 47C50.6398 47 40.3712 44.0662 31.569 40.8807C27.1478 39.2806 23.0492 37.5988 19.5777 36.1602C19.2825 36.0378 18.9925 35.9175 18.7077 35.7994Z" fill="url(#paint1_linear)"/>
<path fill-rule="evenodd" clip-rule="evenodd" d="M120 32C120 36.1006 117.532 39.6248 114 41.1679V78.3328C117.532 78.9501 120 80.3597 120 82C120 84.2091 115.523 86 110 86C104.477 86 100 84.2091 100 82C100 80.3597 102.468 78.9501 106 78.3328V41.1679C102.468 39.6248 100 36.1006 100 32C100 26.4772 104.477 22 110 22C115.523 22 120 26.4772 120 32Z" fill="url(#paint2_linear)"/>
<path fill-rule="evenodd" clip-rule="evenodd" d="M14 41.1679C17.5318 39.6248 20 36.1006 20 32C20 26.4772 15.5228 22 10 22C4.47715 22 0 26.4772 0 32C0 36.1006 2.46819 39.6248 6 41.1679V78.3328C2.46819 78.9501 0 80.3597 0 82C0 84.2091 4.47715 86 10 86C15.5228 86 20 84.2091 20 82C20 80.3597 17.5318 78.9501 14 78.3328V41.1679Z" fill="url(#paint3_linear)"/>
<path d="M95.5169 1.8105C95.6489 1.31571 96.3511 1.31571 96.4831 1.8105L98.3596 8.84318C98.4009 8.99794 98.5139 9.12355 98.6634 9.18101L104.785 11.5333C105.213 11.6975 105.213 12.3025 104.785 12.4667L98.6634 14.819C98.5139 14.8764 98.4009 15.0021 98.3596 15.1568L96.4831 22.1895C96.3511 22.6843 95.6489 22.6843 95.5169 22.1895L93.6404 15.1568C93.5991 15.0021 93.4861 14.8764 93.3366 14.819L87.2147 12.4667C86.7871 12.3025 86.7871 11.6975 87.2147 11.5333L93.3366 9.18101C93.4861 9.12355 93.5991 8.99794 93.6404 8.84318L95.5169 1.8105Z" fill="url(#paint4_linear)"/>
<path d="M37.5169 9.8105C37.6489 9.31571 38.3511 9.31571 38.4831 9.8105L40.3596 16.8432C40.4009 16.9979 40.5139 17.1236 40.6634 17.181L46.7853 19.5333C47.2129 19.6975 47.2129 20.3025 46.7853 20.4667L40.6634 22.819C40.5139 22.8764 40.4009 23.0021 40.3596 23.1568L38.4831 30.1895C38.3511 30.6843 37.6489 30.6843 37.5169 30.1895L35.6404 23.1568C35.5991 23.0021 35.4861 22.8764 35.3366 22.819L29.2147 20.4667C28.7871 20.3025 28.7871 19.6975 29.2147 19.5333L35.3366 17.181C35.4861 17.1236 35.5991 16.9979 35.6404 16.8432L37.5169 9.8105Z" fill="url(#paint5_linear)"/>
<defs>
<linearGradient id="paint0_linear" x1="108" y1="61" x2="84.2211" y2="146.883" gradientUnits="userSpaceOnUse">
<stop stop-color="#FF46B5"/>
<stop offset="1" stop-color="#3EE9D4"/>
</linearGradient>
<linearGradient id="paint1_linear" x1="107.742" y1="29.1027" x2="105.933" y2="53.6695" gradientUnits="userSpaceOnUse">
<stop stop-color="#FF46B5"/>
<stop offset="1" stop-color="#3EE9D4"/>
</linearGradient>
<linearGradient id="paint2_linear" x1="120" y1="22" x2="77.065" y2="55.8204" gradientUnits="userSpaceOnUse">
<stop stop-color="#FF46B5"/>
<stop offset="1" stop-color="#3EE9D4"/>
</linearGradient>
<linearGradient id="paint3_linear" x1="20" y1="22" x2="-22.935" y2="55.8204" gradientUnits="userSpaceOnUse">
<stop stop-color="#FF46B5"/>
<stop offset="1" stop-color="#3EE9D4"/>
</linearGradient>
<linearGradient id="paint4_linear" x1="106" y1="0" x2="93.1451" y2="27.0026" gradientUnits="userSpaceOnUse">
<stop stop-color="#FF46B5"/>
<stop offset="1" stop-color="#3EE9D4"/>
</linearGradient>
<linearGradient id="paint5_linear" x1="48" y1="8" x2="35.1451" y2="35.0026" gradientUnits="userSpaceOnUse">
<stop stop-color="#FF46B5"/>
<stop offset="1" stop-color="#3EE9D4"/>
</linearGradient>
</defs>
</svg>
